<svg width="521" height="557" viewBox="0 0 521 557" fill="none" xmlns="http://www.w3.org/2000/svg">
<rect width="521" height="557" rx="83" fill="#5AEE87" fill-opacity="0.3"/>
<rect y="147" width="521" height="408" rx="83" fill="url(#paint0_linear_5_16)"/>
<circle cx="181" cy="83" r="24" fill="#4BD675"/>
<path d="M143 216.933C143 282.461 194.902 336 258.997 336C323.092 336 374.998 282.461 375 216.933C375 210.192 368.901 206 363.069 206C357.235 206 351.137 210.195 351.137 216.933C351.137 270.768 309.564 314.135 259 314.135C208.436 314.135 166.863 270.768 166.863 216.933C166.863 210.191 160.764 206 154.931 206C149.097 206 143 210.195 143 216.933Z" fill="white" stroke="white" stroke-width="10"/>
<circle cx="336" cy="83" r="24" fill="#4BD675"/>
<defs>
<linearGradient id="paint0_linear_5_16" x1="315" y1="419" x2="36.5" y2="175.5" gradientUnits="userSpaceOnUse">
<stop stop-color="#52D67A"/>
<stop offset="1" stop-color="#5AEE87"/>
</linearGradient>
</defs>
</svg>
